<svg width="689" height="442" fill="none" xmlns="http://www.w3.org/2000/svg"><path d="M547.776 438.914c83.557 0 146.107-90.326 128.462-186.101-.247-1.304-.495-2.579-.742-3.883-15.322-78.735-80.344-127.245-165.902-114.031-79.207 12.229-77.897-36.86-147.194-83.748C214.143-49.086-.297-6.516 51.009 218.966c8.526 37.441 2.002 62.217-8.18 83.053-29.78 60.971 8.106 136.895 68.011 136.895h436.936z" fill="url(#paint0_linear)" fill-opacity=".4"/><g opacity=".19"><path d="M135.368 208.471c-.164 1.067-.985 1.806-2.052 2.053a70.344 70.344 0 01-14.366 1.477c-5.664 0-10.59-.656-14.53-1.56-.985-.246-1.806-.985-2.052-1.97-.329-1.231-.493-2.709-.493-4.433 0-1.314.246-2.381.493-3.367.246-.985 1.067-1.806 2.052-1.97 4.022-.739 9.03-1.396 14.612-1.396 5.418 0 10.179.575 14.12 1.396 1.067.164 1.888 1.067 2.134 2.135.246 1.067.328 2.381.328 3.858.164 1.396 0 2.71-.246 3.777zm36.694 0c-.164 1.067-.985 1.806-2.052 2.053a70.336 70.336 0 01-14.366 1.477c-5.664 0-10.59-.656-14.53-1.56-.985-.246-1.806-.985-2.052-1.97-.329-1.231-.493-2.709-.493-4.433 0-1.314.246-2.381.493-3.367.246-.985 1.067-1.806 2.052-1.97 4.022-.739 9.03-1.396 14.612-1.396 5.418 0 10.179.575 14.12 1.396 1.067.164 1.888 1.067 2.134 2.135.246 1.067.328 2.381.328 3.858.165 1.396 0 2.71-.246 3.777z" fill="#9B8EE0"/><path d="M153.757 192.625c-.164 1.068-.985 1.807-2.052 2.053a70.338 70.338 0 01-14.366 1.478c-5.664 0-10.59-.657-14.53-1.56-.985-.247-1.806-.985-2.052-1.971-.329-1.231-.493-2.709-.493-4.433 0-1.314.246-2.381.493-3.366.246-.986 1.067-1.807 2.052-1.971 4.022-.739 9.03-1.396 14.612-1.396 5.418 0 10.179.575 14.12 1.396 1.067.164 1.888 1.068 2.134 2.135.246 1.067.328 2.381.328 3.859.082 1.477-.082 2.709-.246 3.776z" fill="#B7AEE3"/><path d="M189.823 133.922c-.164 1.068-.985 1.807-2.052 2.053a70.33 70.33 0 01-14.366 1.478c-5.664 0-10.59-.657-14.53-1.56-.985-.246-1.806-.985-2.052-1.971-.329-1.231-.493-2.709-.493-4.433 0-1.314.246-2.381.493-3.366.246-.986 1.067-1.807 2.052-1.971a82.619 82.619 0 0114.694-1.313c5.418 0 10.179.574 14.12 1.395 1.067.165 1.888 1.068 2.134 2.135.246 1.067.329 2.381.329 3.859 0 1.396-.165 2.627-.329 3.694z" fill="#9B8EE0"/><path d="M228.569 177.929c-.164 1.067-.985 1.806-2.052 2.053a70.336 70.336 0 01-14.366 1.477c-5.664 0-10.589-.656-14.53-1.559-.985-.247-1.806-.986-2.052-1.971-.328-1.231-.493-2.709-.493-4.433 0-1.314.247-2.381.493-3.367.246-.985 1.067-1.806 2.052-1.97 4.023-.739 9.03-1.396 14.612-1.396 5.418 0 10.18.575 14.12 1.396 1.067.164 1.888 1.067 2.134 2.135.247 1.067.329 2.381.329 3.858.164 1.478 0 2.71-.247 3.777z" fill="#B7AEE3"/></g><g opacity=".19"><path d="M593.196 234.815c.164 1.067.985 1.806 2.052 2.052a70.33 70.33 0 0014.366 1.478c5.664 0 10.589-.657 14.53-1.56.985-.246 1.806-.985 2.052-1.97.328-1.232.493-2.71.493-4.434 0-1.313-.247-2.381-.493-3.366-.246-.985-1.067-1.806-2.052-1.97-4.023-.739-9.03-1.396-14.612-1.396-5.418 0-10.18.575-14.12 1.396-1.067.164-1.888 1.067-2.134 2.134-.247 1.068-.329 2.381-.329 3.859-.164 1.396 0 2.709.247 3.777zm-36.695 0c.165 1.067.986 1.806 2.053 2.052a70.322 70.322 0 0014.366 1.478c5.664 0 10.589-.657 14.53-1.56.985-.246 1.806-.985 2.052-1.97.328-1.232.492-2.71.492-4.434 0-1.313-.246-2.381-.492-3.366-.246-.985-1.067-1.806-2.052-1.97-4.023-.739-9.03-1.396-14.613-1.396-5.417 0-10.179.575-14.119 1.396-1.067.164-1.888 1.067-2.134 2.134-.247 1.068-.329 2.381-.329 3.859-.164 1.396 0 2.709.246 3.777z" fill="#9B8EE0"/><path d="M574.807 218.969c.164 1.067.985 1.806 2.052 2.053a70.336 70.336 0 0014.366 1.477c5.664 0 10.589-.656 14.53-1.559.985-.247 1.806-.986 2.052-1.971.328-1.231.493-2.709.493-4.433 0-1.314-.247-2.381-.493-3.367-.246-.985-1.067-1.806-2.052-1.97-4.023-.739-9.03-1.396-14.612-1.396-5.418 0-10.18.575-14.12 1.396-1.067.164-1.888 1.067-2.134 2.135-.247 1.067-.329 2.381-.329 3.858-.082 1.478.082 2.71.247 3.777z" fill="#B7AEE3"/><path d="M538.74 160.266c.165 1.067.986 1.806 2.053 2.053a70.329 70.329 0 0014.366 1.477c5.664 0 10.589-.656 14.53-1.559.985-.247 1.806-.986 2.052-1.971.328-1.231.492-2.709.492-4.433 0-1.314-.246-2.381-.492-3.367-.246-.985-1.067-1.806-2.052-1.97a82.613 82.613 0 00-14.695-1.314c-5.418 0-10.179.575-14.119 1.396-1.067.164-1.888 1.067-2.135 2.135-.246 1.067-.328 2.381-.328 3.859 0 1.395.164 2.627.328 3.694z" fill="#9B8EE0"/><path d="M499.994 204.273c.164 1.067.985 1.806 2.052 2.052a70.338 70.338 0 0014.366 1.478c5.665 0 10.59-.657 14.53-1.56.985-.246 1.806-.985 2.053-1.97.328-1.232.492-2.71.492-4.434 0-1.313-.246-2.381-.492-3.366-.247-.985-1.068-1.806-2.053-1.97-4.022-.739-9.03-1.396-14.612-1.396-5.418 0-10.179.575-14.119 1.396-1.068.164-1.888 1.067-2.135 2.134-.246 1.068-.328 2.381-.328 3.859-.164 1.478 0 2.709.246 3.777z" fill="#B7AEE3"/></g><path d="M569.857 255.034v3.197c0 1.123.375 2.045.807 2.045h117.01c.432 0 .806-.922.806-2.045v-3.197c0-1.123-.374-2.044-.806-2.044h-117.01c-.432 0-.807.921-.807 2.044z" fill="#9B8EE0"/><path d="M569.857 255.034v3.197c0 1.123.346 2.045.749 2.045h92.899c.404 0 .749-.922.749-2.045v-3.197c0-1.123-.345-2.044-.749-2.044h-92.899c-.403 0-.749.921-.749 2.044z" fill="#AEA1F0"/><path d="M599.479 381.326h83.077V260.26h-83.077v121.066z" fill="#6B52CA"/><path d="M576.193 381.326h83.076V260.26h-83.076v121.066z" fill="#806ECC"/><path d="M580.66 263.703h74.146v110.958H580.66V263.703zm73.34.777h-72.534v109.346H654V264.48z" fill="#9B8EE0"/><path d="M654.403 300.391h-73.34v.807h73.34v-.807zm0 37.438h-73.34v.806h73.34v-.806zm-44.188-66.984h13.596c.663 0 1.21-.548 1.21-1.21 0-.662-.547-1.209-1.21-1.209h-13.596c-.663 0-1.21.547-1.21 1.209s.547 1.21 1.21 1.21zm0 36.602h13.596c.663 0 1.21-.547 1.21-1.21 0-.662-.547-1.209-1.21-1.209h-13.596c-.663 0-1.21.547-1.21 1.209 0 .663.547 1.21 1.21 1.21zm0 38.128h13.596c.663 0 1.21-.547 1.21-1.209 0-.663-.547-1.21-1.21-1.21h-13.596c-.663 0-1.21.547-1.21 1.21 0 .691.547 1.209 1.21 1.209z" fill="#9B8EE0"/><path d="M72.836 314.151s10.846-12.597.67-20.606c0 0-7.417-4.477-13.467-4.116 0 0 8.587 14.349 5.8 15.768-2.789 1.418-8.393-16.686-8.393-16.686s-16.896-1.64-22.332.974c0 0 14.442 11.791 11.403 12.486-3.04.695-18.653-10.873-18.653-10.873s-15.724 2.669-14.888 12.236c.836 9.566 6.245 12.513 8.643 12.263 2.37-.25 16.31-5.562 16.617-3.615.307 1.947-8.085 8.315-13.968 8.593 0 0 11.096 12.208 18.457 8.676 7.36-3.531 8.002-9.093 12.602-11.179 4.6-2.086 8.504-2.086 6.608.056-1.896 2.141-10.205 4.199-12.825 8.843-2.621 4.644-4.991 7.759 2.648 6.618 7.612-1.14 20.019-6.702 20.549-13.07l.53-6.368z" fill="#6B52CA"/><path d="M20.7 303.612s42.713-1.641 52.136 10.539c0 0 2.091 6.229 8.504 11.902l1.004 2.726s-7.389-7.787-10.037-8.26c0 0 4.126-15.072-51.608-16.907z" fill="#6B52CA"/><path d="M81.34 326.053s9.173 6.758 9.814 18.855l-1.673.139s-2.927-12.486-8.225-17.381c-5.27-4.866.084-1.613.084-1.613zm29.386-27.753s-17.23-9.622-9.2-22.692c0 0 6.44-8.009 13.327-10.094 0 0-3.681 19.494 0 19.939 3.68.444 2.537-21.997 2.537-21.997s18.15-8.704 25.288-8.009c0 0-11.264 19.021-7.584 18.576 3.681-.445 16.311-19.716 16.311-19.716s18.624-3.448 21.607 7.564c2.984 11.012-1.84 16.49-4.6 17.186-2.76.695-20.437.444-19.991 2.753.446 2.28 12.407 5.951 19.071 3.893 0 0-7.361 18.103-17.007 17.186-9.647-.918-12.631-6.869-18.625-7.342-5.966-.445-10.344 1.14-7.36 2.753 2.983 1.613 13.104.528 17.927 4.616 4.823 4.088 8.727 6.619-.223 8.454-8.95 1.836-25.037.695-28.271-6.201l-3.207-6.869z" fill="#6B52CA"/><path d="M164.48 265.319s-48.262 15.573-53.754 33.009c0 0 .223 7.786-4.6 16.741v3.448s5.046-11.68 7.806-13.292c0-.056-10.79-15.156 50.548-39.906z" fill="#6B52CA"/><path d="M106.125 315.041s-7.444 11.263-3.206 25l1.924-.5s-1.868-15.101 2.035-22.72c3.903-7.62-.753-1.78-.753-1.78z" fill="#6B52CA"/><path d="M83.321 285.037s22.723-12.681 12.128-29.894c0 0-8.476-10.567-17.565-13.293 0 0 4.852 25.668 0 26.279-4.851.612-3.346-29.004-3.346-29.004s-23.921-11.485-33.317-10.567c0 0 14.832 25.083 9.981 24.471-4.851-.611-21.496-25.973-21.496-25.973s-24.535-4.561-28.466 9.956c-3.932 14.488 2.425 21.746 6.05 22.664 3.624.917 26.96.611 26.347 3.615-.613 3.031-16.366 7.842-25.148 5.144 0 0 9.702 23.86 22.416 22.664 12.713-1.195 16.645-9.065 24.535-9.677 7.863-.612 13.634 1.502 9.703 3.615-3.932 2.114-17.259.695-23.615 6.09-6.357 5.395-11.515 8.704.306 11.124 11.822 2.419 33.011.917 37.25-8.148l4.237-9.066z" fill="#806ECC"/><path d="M12.446 241.543s63.597 20.55 70.874 43.492c0 0-.307 10.262 6.05 22.053v4.533s-6.664-15.406-10.288-17.52c-.028 0 14.219-19.939-66.636-52.558z" fill="#806ECC"/><path d="M89.37 307.088s9.814 14.85 4.21 32.953l-2.537-.667s2.453-19.911-2.677-29.95c-5.13-10.039 1.004-2.336 1.004-2.336z" fill="#806ECC"/><path d="M84.072 379.251c-24.563 0-44.498-19.883-44.498-44.382h88.996c0 24.499-19.935 44.382-44.498 44.382z" fill="#806ECC"/><path d="M38.961 381.504h90.223a5.479 5.479 0 00-5.493-5.478H44.453a5.478 5.478 0 00-5.492 5.478z" fill="#806ECC"/><path d="M38.548 336.219h91.478v-1.362H38.548v1.362z" fill="#6B52CA"/><path d="M204.713 111.037h-64.676c-2.976 0-5.414-2.439-5.414-5.416v-62.44c0-2.977 2.438-5.415 5.414-5.415h64.676c2.976 0 5.413 2.438 5.413 5.415v62.44c0 2.977-2.437 5.416-5.413 5.416z" fill="#B7AEE3"/><path d="M201.916 107.845h-59.083a4.959 4.959 0 01-4.948-4.95V45.871a4.959 4.959 0 014.948-4.95h59.083a4.959 4.959 0 014.948 4.95v57.06c-.036 2.69-2.259 4.914-4.948 4.914z" fill="#A396D8"/><path d="M170.798 47.628c0-.86.717-1.578 1.577-1.578.861 0 1.578.718 1.578 1.578 0 .861-.717 1.578-1.578 1.578-.86 0-1.577-.717-1.577-1.578zm12.619 2.224c.431-.753 1.363-1.04 2.116-.61.752.43 1.039 1.363.609 2.116-.43.754-1.362 1.04-2.115.61-.753-.43-1.04-1.363-.61-2.116zm10.827 8.571a1.561 1.561 0 012.151.467 1.563 1.563 0 01-.466 2.152 1.562 1.562 0 01-2.151-.467c-.466-.717-.287-1.685.466-2.152zm5.342 13.307c.861 0 1.578.716 1.578 1.577s-.717 1.578-1.578 1.578c-.86 0-1.577-.717-1.577-1.578 0-.896.717-1.578 1.577-1.578zm-2.725 15.42c.61.61.61 1.615 0 2.224-.609.61-1.613.61-2.222 0a1.58 1.58 0 010-2.223 1.578 1.578 0 012.222 0zm-9.823 9.864c.61.61.61 1.614 0 2.223a1.58 1.58 0 01-2.223 0 1.581 1.581 0 010-2.223 1.58 1.58 0 012.223 0zm-16.24 5.056c0-.86.717-1.578 1.577-1.578s1.577.718 1.577 1.578c0 .861-.717 1.578-1.577 1.578s-1.577-.717-1.577-1.578zm-9.537-52.218c-.431-.753-1.363-1.04-2.116-.61-.752.43-1.039 1.363-.609 2.116.43.754 1.362 1.04 2.115.61.753-.43 1.04-1.363.61-2.116zm-10.791 8.571a1.561 1.561 0 00-2.151.467 1.563 1.563 0 00.466 2.152 1.562 1.562 0 002.151-.467 1.563 1.563 0 00-.466-2.152zm-5.378 13.307c-.86 0-1.578.716-1.578 1.577s.718 1.578 1.578 1.578c.86 0 1.577-.717 1.577-1.578 0-.896-.717-1.578-1.577-1.578zm2.725 15.42a1.58 1.58 0 000 2.224c.609.61 1.613.61 2.222 0a1.58 1.58 0 000-2.223 1.578 1.578 0 00-2.222 0zm9.823 9.864a1.58 1.58 0 000 2.223 1.58 1.58 0 002.223 0 1.582 1.582 0 000-2.223 1.58 1.58 0 00-2.223 0zm14.305-23.743c0-.86.717-1.578 1.578-1.578.86 0 1.577.718 1.577 1.578 0 .861-.717 1.578-1.577 1.578a1.569 1.569 0 01-1.578-1.578z" fill="#462CA9"/><path d="M173.739 53.761h-.431v19.546h.431V53.761z" fill="#462CA9"/><path d="M183.26 64.616l-10.35 8.128.797 1.016 10.35-8.128-.797-1.016z" fill="#462CA9"/><path d="M420.801 387.599c26.786 0 48.5-20.623 48.5-46.063s-21.714-46.063-48.5-46.063-48.5 20.623-48.5 46.063 21.714 46.063 48.5 46.063zm159.628-49.261v12.59c0 4.197-2.455 5.496-5.511 5.496h-3.006c-6.614 18.135-24.951 31.175-46.496 31.175-27.155 0-49.151-20.634-49.151-46.063 0-25.43 22.948-57.504 50.053-57.504 26.004 0 50.454 9.192 52.208 33.123l1.903 21.183zm-235.233-3.547v28.577c0 4.846-4.309 4.147-7.666 4.147h-6.864c-8.718 12.19-23.448 20.134-40.082 20.134-22.797 0-41.937-14.988-47.097-35.122a43.947 43.947 0 01-1.403-10.941c0-16.987 9.67-31.825 24.049-39.818 3.307-4.597 6.063-8.244 6.664-8.394 1.603-.349 20.893-6.944 21.544-7.693.601-.8 11.574-1.599 11.574-1.599l24.3 9.492 13.177 23.731s1.804 11.741 1.804 17.486zm-120.197 0v28.577c0 4.846-4.209 4.147-7.466 4.147h-6.713c-8.518 12.19-22.847 20.134-39.131 20.134-22.246 0-40.934-14.988-45.994-35.122-.902-3.497-1.353-7.194-1.353-10.941 0-16.987 9.419-31.825 23.498-39.818 3.207-4.597 5.912-8.244 6.463-8.394 1.554-.349 20.392-6.944 20.994-7.693.601-.8 11.273-1.599 11.273-1.599l23.698 9.492 12.877 23.731c.1 0 1.854 11.741 1.854 17.486z" fill="#282144"/><path d="M101.094 326.548v1.948l.902 4.546.1.45s1.353 6.095 1.102 7.444v.05c-.301 1.499-3.457 9.193-3.307 10.042.1.899 1.002 1.449 1.002 1.449h152.213c10.372 0 8.668-7.994 8.668-10.642 0-2.647 2.656-53.956 41.085-53.956s42.737 43.964 42.737 53.607v10.991h141.792c7.515 0 9.87-8.144 9.87-22.632 0-14.488 15.532-41.567 41.686-41.567s37.828 27.878 39.481 34.723c1.653 6.844 2.004 15.337 2.004 15.337s4.008-5.146 6.012-6.145c2.005-.999 7.015-1.149 8.167-2.348 1.153-1.149 5.862-13.839 6.864-21.133.351-2.498.602-5.046.652-7.394.15-4.646-.401-8.593-2.155-10.242-1.403-1.349-2.104-1.948-2.405-2.248l-.25-.25s-1.503-11.091-3.006-16.836c-1.503-5.746-3.658-11.641-3.658-11.641s2.155-2.648 2.405-4.896c.1-.75.1-1.399.05-1.849-.1-.899-.3-1.299-.3-1.299l-8.668-14.638-16.935-7.094-15.532-20.184-4.259-5.546s.451-7.693.551-11.59v-.55c-.2-3.447-3.407-4.596-14.93-5.645-12.175-1.149-97.1-12.39-171.503-6.395-24.6 1.998-44.291 5.745-60.424 10.242-.15.05-.301.05-.401.1-.301.099-.551.149-.852.249h-.1c-31.815 9.093-49.401 21.034-62.929 27.778-20.492 10.192-29.862 17.536-29.862 17.536s-6.463 1.299-15.582 3.197c-9.118 1.949-20.842 4.547-31.414 7.195-19.089 4.796-33.87 12.39-40.283 17.286l2.956 4.646-.15 8.293-1.553 5.646-7.466 7.544h-8.267c-.05.5-.1.749-.1.749s-2.505 6.695-3.607 11.841c-.101.499-.201.999-.301 1.449-.852 5.245-1.303 13.389-1.303 13.389l1.103.899v.65l.1 7.444z" fill="#F6F6FA"/><path d="M235.62 285.88l-.25-.399 18.438-11.641c.902-.599 1.352-1.599 1.302-2.648v-.25h.251v.25h.25a3.334 3.334 0 01-1.503 3.098l-18.488 11.59zm90.236-45.713l-.2-.45c.05-.05 7.365-3.097 20.492-14.788 6.012-5.346 11.674-10.641 16.884-15.787l.351.35c-5.211 5.145-10.922 10.491-16.885 15.837-13.227 11.74-20.592 14.788-20.642 14.838z" fill="#F0575C"/><path d="M325.706 240.167c-.1 0-12.877-2.098-47.598-5.146-11.273-.999-23.198-1.549-35.523-1.599v-.499c12.325.05 24.3.599 35.573 1.599 34.721 3.097 47.498 5.145 47.598 5.145l-.05.5z" fill="#F0575C"/><path d="M325.756 240.167h-.05c-.101 0-11.725-1.898-42.788-4.746l.05-.5c29.811 2.748 41.735 4.547 42.738 4.746.601-.249 5.21-2.348 13.227-8.693l.3.4c-8.617 6.795-13.377 8.793-13.427 8.793h-.05zm136.53-5.296v-.25c0-.05-.701-7.494-4.359-22.931l.501-.1c3.257 13.939 4.159 21.383 4.309 22.782 2.906-.15 32.016-1.499 46.346-3.997 8.267-1.449 13.277-3.747 14.88-6.745.752-1.399.702-2.897-.05-4.546-.802-1.799-4.209-5.596-9.72-9.842l.301-.4c5.561 4.297 9.018 8.193 9.87 10.042.802 1.799.852 3.497.05 4.996-1.653 3.147-6.814 5.546-15.231 6.994-15.031 2.648-46.295 3.997-46.646 3.997h-.251zm-98.252 7.844c-3.006 0-5.261-.849-6.563-2.548-1.403-1.799-1.604-4.446-.551-7.644 1.503-4.746 7.014-11.541 12.375-18.135 1.804-2.249 3.708-4.547 5.361-6.745l.401.3c-1.653 2.198-3.557 4.496-5.361 6.744-5.311 6.545-10.822 13.34-12.275 17.986-.952 3.048-.802 5.546.501 7.194 1.302 1.649 3.707 2.448 6.964 2.298 2.956-.149 7.465-.649 13.728-1.299 8.267-.899 19.641-2.148 34.722-3.347 24.049-1.948 35.372-2.698 37.176-2.798-.2-1.998-1.453-15.038-3.156-25.529-.301-1.799-.602-3.597-.952-5.296l.501-.1c.35 1.749.701 3.547 1.002 5.346 1.803 11.391 3.156 25.679 3.156 25.829v.25h-.25c-.101 0-11.173.699-37.427 2.848-15.081 1.249-26.405 2.448-34.722 3.347-6.263.699-10.772 1.149-13.728 1.299-.351-.05-.651 0-.902 0z" fill="#F0575C"/><path d="M364.034 242.715c-3.006 0-5.261-.85-6.563-2.548-1.403-1.799-1.604-4.447-.551-7.644.651-2.098 2.204-4.846 4.709-8.343l.401.299c-2.455 3.448-3.958 6.096-4.609 8.194-.952 3.047-.802 5.545.501 7.194 1.302 1.649 3.707 2.448 6.964 2.298 2.956-.15 7.465-.649 13.728-1.299 2.155-.25 4.56-.499 7.165-.749l.05.499c-2.605.3-5.01.55-7.165.75-6.263.699-10.772 1.149-13.778 1.299-.301 0-.601.05-.852.05z" fill="#F0575C"/><path d="M364.034 242.715c-3.006 0-5.261-.85-6.563-2.548-1.403-1.799-1.604-4.447-.551-7.644.15-.5.35-.999.601-1.549l.451.2c-.251.5-.401.999-.601 1.499-.952 3.047-.802 5.545.501 7.194 1.302 1.649 3.707 2.448 6.964 2.298 2.956-.15 7.465-.649 13.728-1.299 2.155-.25 4.509-.499 7.115-.749 2.004-.7 3.407-1.399 4.208-2.048 2.906-2.399 3.357-5.396 3.257-7.544l.501-.05c.15 2.248-.351 5.395-3.457 7.943-.852.7-2.305 1.399-4.409 2.149h-.05c-2.605.299-5.01.549-7.165.749-6.263.699-10.772 1.149-13.778 1.299-.201.05-.501.1-.752.1zm98.503-7.844v-.499c.301 0 31.565-1.349 46.546-3.997 7.866-1.399 12.776-3.497 14.63-6.295l.401.3c-1.954 2.897-6.965 5.096-14.931 6.494-15.031 2.598-46.345 3.947-46.646 3.997z" fill="#F0575C"/><path d="M382.673 240.916l-.05-.499c1.002-.1 2.004-.2 3.056-.35 9.57-.999 18.338-1.849 27.557-2.598 24.049-1.948 35.372-2.698 37.176-2.798-.05-.599-.2-2.298-.451-4.646l.501-.05c.301 2.998.501 4.896.501 4.896v.25h-.25c-.101 0-11.173.699-37.427 2.848-9.219.749-17.987 1.548-27.507 2.598-1.102.149-2.104.249-3.106.349z" fill="#F0575C"/><path d="M539.896 231.174c-14.931 4.347-79.263 7.444-123.253 12.34-43.991 4.896-85.777 10.692-116.891 22.132-31.114 11.441-38.429 25.88-41.585 33.873-3.157 7.994-3.257 20.933-4.81 23.981-2.756 5.196-38.93 1.299-45.243 1.699-6.313.449-9.419-5.046-15.883-12.84-6.363-7.794-7.515-13.789-12.626-13.789H123.54c-4.509 0-6.263 10.891-7.966 17.086-1.654 6.195-2.055 11.541-4.961 14.489-1.302 1.299-5.361-.8-9.519-3.547l-.1-7.494v-.65l-1.103-.899s.451-8.094 1.353-13.339c.1-.45.201-.95.301-1.449l7.716-3.947s7.716-9.243 8.918-10.442c1.202-1.199 3.758-1.399 10.672-1.399h60.124c6.012 0 8.317 4.747 12.525 7.644 4.209 2.898 5.762 5.346 8.317 5.346 2.556 0 22.547.799 25.703.949 3.157.15 11.123-10.242 16.835-15.138 5.712-4.896 12.826-12.44 14.179-15.088 1.353-2.647-.15-4.246-2.756-6.894-2.605-2.648-5.511-4.197-5.511-4.197s31.164-11.341 58.57-15.088c27.407-3.747 125.158-14.938 125.158-14.938 19.74-.849 25.151-35.022 25.151-35.022l12.276-4.146 68.541 2.148v.55c-.101 3.896-.552 11.59-.552 11.59l4.259 5.546c-1.152.549-1.954.949-1.954.949s3.357 4.197 4.008 6.195c.652 1.999 1.103 9.443-13.828 13.789z" fill="#E5E2F1"/><path d="M515.796 232.623c-15.381.849-39.932 3.647-90.836 7.544-50.955 3.897-52.709 5.096-59.823 5.346-7.115.2-14.48-.2-23.599-1.349-9.119-1.099-49.903-7.994-83.973-9.093-34.07-1.099-50.553 1.349-50.553 1.349s.901-.699 2.805-1.998c4.159-2.848 12.977-8.494 27.056-15.538 12.776-6.395 29.26-17.436 57.969-26.329 1.603-.499 3.257-.999 4.96-1.499h.1c.251-.05.552-.15.852-.249.1-.05.251-.05.401-.1 9.82-2.498 72.649-5.346 109.325-4.846 37.226.499 74.303 3.347 93.342 9.642 19.039 6.345 32.066 19.134 34.42 24.63 2.305 5.496-7.064 11.641-22.446 12.49z" fill="#3E3465"/><path d="M382.523 188.309s-5.962 7.744-19.34 20.983c-4.709 4.646-10.321 9.942-16.884 15.837-13.278 11.841-20.543 14.839-20.543 14.839s-12.475-2.049-47.597-5.146c-12.476-1.099-24.751-1.549-35.523-1.599-15.182-.1-27.407.549-32.818 1.199 4.159-2.848 12.977-8.493 27.056-15.538 12.776-6.394 29.26-17.436 57.969-26.328 8.417-.95 19.44-2.099 32.116-3.048 29.36-2.248 55.564-1.199 55.564-1.199z" fill="#B9CAD2"/><path d="M363.183 209.292c-4.71 4.646-10.322 9.942-16.885 15.837-2.656 2.348-5.01 4.346-7.165 6.045-8.718 6.895-13.327 8.743-13.327 8.743s-11.374-1.848-42.788-4.746c-1.553-.15-3.157-.3-4.81-.45-12.476-1.099-24.751-1.549-35.523-1.598 0 0 27.206-19.385 58.47-23.881 31.114-4.447 62.028.05 62.028.05z" fill="#748A97"/><path d="M339.083 231.174c-8.718 6.894-13.327 8.743-13.327 8.743s-11.373-1.849-42.788-4.746c0 0 24.951-3.597 37.277-3.947 7.014-.15 14.079-.1 18.838-.05z" fill="#95A3AC"/><path d="M450.662 234.921s-10.872.65-37.427 2.848c-26.554 2.198-41.585 4.346-48.449 4.646-6.864.35-9.67-3.497-7.666-9.842 2.004-6.345 11.173-16.337 17.686-24.83 6.514-8.493 19.04-19.734 19.04-19.734l48.75 1.599s2.104 5.595 3.858 14.138c.35 1.649.651 3.447 1.002 5.346 1.904 11.541 3.206 25.829 3.206 25.829z" fill="#B9CAD2"/><path d="M450.663 234.921s-10.873.65-37.427 2.848a998.35 998.35 0 00-27.557 2.598c1.754-.6 3.407-1.299 4.309-2.098 2.806-2.299 3.507-5.246 3.357-7.744-2.806 0-6.614 0-11.374.05-9.369.15-20.642.399-24.3.499.902-1.998 2.305-4.296 4.059-6.744 3.758-5.246 8.918-11.191 13.027-16.587 0 0 19.039-3.847 53.96-4.147 5.762-.05 11.725 0 17.737.15.351 1.649.651 3.447 1.002 5.346 1.152 7.294 2.154 15.737 2.655 20.933.401 2.998.552 4.896.552 4.896z" fill="#748A97"/><path d="M450.162 230.025c.3 2.998.501 4.896.501 4.896s-10.873.65-37.427 2.848a994.44 994.44 0 00-27.557 2.598c1.754-.6 3.407-1.299 4.309-2.098 2.806-2.299 3.507-5.246 3.357-7.744.05 0 29.41.1 56.817-.5z" fill="#95A3AC"/><path d="M509.133 230.625c-15.182 2.648-46.596 3.997-46.596 3.997s-.652-7.345-4.359-22.982a131.678 131.678 0 00-1.954-7.494c-2.956-10.092-5.562-14.139-5.562-14.139s20.543.65 39.231 6.345c9.87 2.998 18.388 8.044 24.45 12.69 5.411 4.147 8.919 8.044 9.77 9.942 1.904 3.947.201 8.943-14.98 11.641z" fill="#B9CAD2"/><path d="M523.913 224.23c-1.653 2.498-5.912 4.846-14.78 6.395-15.181 2.648-46.596 3.997-46.596 3.997s-.15-1.599-.651-4.897c-.601-3.747-1.704-9.742-3.658-18.085a130.842 130.842 0 00-1.954-7.494c22.847.949 45.243 2.998 58.17 4.896 5.411 4.147 8.918 8.044 9.77 9.942.701 1.599.852 3.447-.301 5.246z" fill="#748A97"/><path d="M523.913 224.23c-1.653 2.498-5.912 4.846-14.78 6.395-15.181 2.647-46.596 3.996-46.596 3.996s-.15-1.598-.651-4.896c6.663-.2 12.926-.449 18.287-.799 21.645-1.299 37.177-3.597 43.74-4.696z" fill="#95A3AC"/><path d="M390.039 238.268c-.952.75-2.556 1.449-4.309 2.099-10.171 1.099-16.935 1.898-20.893 2.098-6.864.35-9.67-3.497-7.666-9.842.15-.5.351-.999.601-1.499.902-1.998 2.305-4.296 4.059-6.744 1.202-.3 2.254-.6 3.006-.75 2.906-.599 13.878-1.648 21.193-.599 7.365 1.099 7.115 3.597 7.365 7.394v.1c.151 2.498-.551 5.445-3.356 7.743z" fill="#F7F6F1"/><path d="M390.038 238.268c-.952.75-2.555 1.449-4.309 2.099-1.052.1-2.104.2-3.056.349-8.468.9-14.28 1.599-17.837 1.749-6.864.35-9.67-3.497-7.666-9.842.05-.1.1-.25.151-.35.05-.15.1-.25.15-.399.05-.15.1-.25.15-.4.05-.15.1-.25.15-.4 3.658-.1 14.931-.35 24.3-.499 4.71-.05 8.518-.1 11.374-.05.1 2.498-.601 5.445-3.407 7.743z" fill="#DAD9D4"/><path d="M110.564 327.947c-.2 1.998-.351 4.646-1.202 4.996-.551.2-4.459.15-7.315.1l-.902-4.547-.1-9.442 1.202-.65s7.215 2.448 7.566 3.198c.35.799 1.002 4.346.751 6.345z" fill="#282144"/><path d="M106.455 331.644h-6.563a1.11 1.11 0 01-1.103-1.1v-.799a1.11 1.11 0 011.103-1.099h6.563c.601 0 1.102.5 1.102 1.099v.799c0 .6-.501 1.1-1.102 1.1z" fill="#FE851D"/><path d="M201.45 321.552l28.258-4.197s5.211 4.097 6.464 9.093c1.202 4.996-.351 6.544-.351 6.544h-28.258s-3.207-2.198-4.81-4.996c-1.553-2.797-1.303-6.444-1.303-6.444z" fill="#282144"/><path d="M232.163 331.644h-22.897a1.11 1.11 0 01-1.102-1.1v-.799a1.11 1.11 0 011.102-1.099h22.897c.602 0 1.103.5 1.103 1.099v.799c0 .6-.501 1.1-1.103 1.1z" fill="#FE851D"/><path d="M174.795 310.611c-2.104.149-57.217 40.317-57.217 40.317l-1.603 1.599h-15.081s-.902-.55-1.003-1.449c-.1-.899 3.057-8.593 3.307-10.042h4.359c1.453 0 3.808-2.997 5.311-6.245 1.503-3.247 7.516-28.227 8.668-31.125 1.152-2.898 3.357-2.748 10.622-2.748h40.483c3.257 0 6.564 3.597 7.866 5.346 1.303 1.699-3.657 4.197-5.712 4.347zm427.329-9.293c-.05 2.348-.301 4.896-.651 7.394-1.002 7.344-5.662 19.984-6.865 21.133-1.152 1.149-6.162 1.349-8.166 2.348-2.004.999-6.013 6.145-6.013 6.145s-.35-8.493-2.004-15.338c-1.653-6.844-13.377-34.722-39.481-34.722-26.154 0-41.686 27.079-41.686 41.567s-2.354 22.632-9.87 22.632H345.597v-10.991c0-9.643-4.359-53.607-42.738-53.607-38.429 0-41.085 51.308-41.085 53.956 0 2.648 1.654 10.642-8.668 10.642h-47.347l-5.211-11.091h47.899c7.115 0 6.112-10.792 10.822-26.779 4.66-15.987 22.847-36.221 44.442-36.221 21.594 0 35.072 15.688 40.833 26.579 5.762 10.891 7.516 20.983 7.817 26.429.35 5.445 1.903 9.992 7.214 9.992h119.797c7.114 0 7.916-.999 9.219-4.647 1.352-3.647 1.803-14.738 6.914-27.178 5.11-12.44 19.69-30.875 44.09-30.875 24.401 0 36.626 22.532 38.429 25.18 1.804 2.648 3.357 3.897 6.363 3.897 3.007 0 9.27-.65 12.376-1.999 2.054-.899 3.758-2.398 5.361-4.446z" fill="#E5E2F1"/><path d="M177.401 306.214h-45.343a6.38 6.38 0 00-6.213 4.846l-10.271 41.467h95.847l-28.709-43.465c-1.153-1.799-3.157-2.848-5.311-2.848z" fill="#282144"/><path d="M200.999 358.622h-71.246a5.762 5.762 0 01-5.461-3.897l-.752-2.198h83.672l-.852 2.348c-.801 2.248-2.956 3.747-5.361 3.747zm-20.742-45.214h-45.444c-2.455 0-4.659 1.699-5.21 4.097l-8.668 35.022h88.081l-24.25-36.671a5.362 5.362 0 00-4.509-2.448z" fill="#636E8E"/><path d="M177.752 333.842H133.46a8.04 8.04 0 00-7.866 6.345l-2.555 12.34h70.345l-8.818-14.738a7.856 7.856 0 00-6.814-3.947z" fill="#F7F6F1"/><path d="M597.564 288.828c-3.807 1.798-8.166 3.647-10.772 4.047-5.361.849-6.363-.85-10.672-7.844-4.359-6.995-12.676-16.487-42.938-16.487-30.212 0-41.736 35.122-42.688 43.465-.952 8.344-3.407 12.84-7.766 12.84H356.519c-4.459 0-3.708-9.842-4.209-15.488-.501-5.645-3.006-10.991-10.872-23.331s-17.035-11.99-13.678-15.637c3.357-3.647 26.705-6.345 83.171-11.641 49.502-4.696 133.875-7.944 160.379-8.543 3.708-.1 6.313-.1 7.466-.1l14.329 3.197c.05.5.05 1.099-.05 1.849-.25 2.248-2.405 4.896-2.405 4.896s2.155 5.895 3.658 11.641c1.503 5.745 3.006 16.836 3.006 16.836s0 .05.25.3z" fill="#E5E2F1"/><path d="M588.797 245.763l-4.86-8.194-15.983-6.695.2-.449 16.133 6.744 4.96 8.344-.45.25z" fill="#F0575C"/><path d="M593.055 255.155c-.25 2.248-2.405 4.896-2.405 4.896l-7.866.3s-5.912-5.446-11.473-10.192c-.552-.5-1.153-.949-1.704-1.449-6.012-4.996-8.668-6.994-7.515-9.992 1.152-2.998 5.11-8.493 5.11-8.493l.902.35 16.083 6.694 4.91 8.294 3.758 6.344s.2.4.3 1.299c0 .6 0 1.199-.1 1.949z" fill="#F15A23"/><path d="M589.048 245.663l-17.787.849s-4.409-2.998-6.162-4.896c-1.754-1.899-.502-3.597 0-5.396.501-1.848 2.956-5.545 2.956-5.545l16.083 6.694 4.91 8.294z" fill="#F8B173"/><path d="M361.529 338.188c-.25 0-.501-.15-.651-.349-.25-.4-6.363-10.342-6.363-25.98 0-4.946.05-11.34.1-18.135.1-14.189.251-30.326-.1-36.071-.451-7.994-4.96-11.291-5.01-11.341-.351-.25-.401-.7-.201-1.049.251-.35.702-.4 1.052-.2.201.15 5.161 3.747 5.662 12.49.351 5.845.2 21.932.1 36.171-.05 6.745-.1 13.139-.1 18.085 0 15.238 6.063 25.13 6.113 25.23.2.35.1.8-.251 1.049-.05.05-.2.1-.351.1zm97.851.85c-.401 0-.701-.3-.751-.7 0-.149-1.153-16.986.601-34.872l.2-2.248c1.654-16.936 3.257-32.923 1.654-45.863-1.553-12.79-5.161-14.688-5.211-14.738-.351-.2-.551-.6-.351-.999.151-.35.602-.55.952-.4.451.2 4.409 2.248 6.113 15.937 1.603 13.14 0 29.177-1.654 46.213l-.2 2.248c-1.754 17.786-.601 34.473-.601 34.622.05.4-.301.75-.702.8h-.05zm66.938-69.095c-.2 0-.401-.1-.551-.25-.3-.299-.25-.749 0-1.049.15-.15 14.981-14.338 16.033-23.231 1.052-8.693-5.01-12.79-5.311-12.94-.351-.25-.451-.699-.2-1.049.25-.35.701-.45 1.052-.2.301.2 7.115 4.746 5.962 14.389-1.152 9.442-15.882 23.531-16.484 24.13-.15.15-.3.2-.501.2z" fill="#B1B3AE"/><path d="M261.624 272.941l-25.904 17.636h-25.051l-13.478-7.994h-76.257l-7.465 7.544h-8.267c.1-.7.251-1.849.501-3.198a44.823 44.823 0 011.754-6.594c1.503-4.197 4.259-8.394 8.116-12.44a34.18 34.18 0 012.355-2.298c.501-.45 1.103-.95 1.754-1.499l3.858 2.698h83.672l43.439-9.243c1.353-.3 2.706.1 3.708.999l7.766 6.995c2.304 2.048 2.054 5.695-.501 7.394z" fill="#3E3465"/><path d="M198.644 273.59h-73.651a1.11 1.11 0 01-1.102-1.099v-.799c0-.6.501-1.099 1.102-1.099h73.651a1.11 1.11 0 011.103 1.099v.799c0 .6-.501 1.099-1.103 1.099zm-3.206 4.896h-69.944a1.11 1.11 0 01-1.102-1.099v-.799c0-.6.501-1.099 1.102-1.099h69.944a1.11 1.11 0 011.102 1.099v.799c0 .6-.501 1.099-1.102 1.099z" fill="#677290"/><path d="M253.908 274.04l-18.438 11.64-2.004 1.249h-23.047l-7.666-4.546a2.637 2.637 0 01-.902-3.697l5.361-8.393 37.878-7.594c.902-.2 1.854.05 2.505.649l6.664 5.546c.651.599 1.002 1.349 1.052 2.148.1 1.199-.401 2.298-1.403 2.998z" fill="#B9CAD2"/><path d="M253.908 274.04l-18.438 11.64h-20.592l-9.42-5.095s1.002-1.249 14.68-4.447c13.528-3.197 34.622-4.946 35.173-4.996.1 1.099-.401 2.198-1.403 2.898z" fill="#748A97"/><path d="M120.935 270.992s-1.002 8.444-1.453 9.343c-.451.899-6.213 6.595-6.213 6.595h-7.516a44.8 44.8 0 011.754-6.595c1.503-4.197 4.259-8.393 8.117-12.44h2.004l3.307 3.097z" fill="#B9CAD2"/><path d="M110.413 278.386s-1.603 2.948-1.954 4.696c-.351 1.799-.902 2.548-.902 2.548h5.111l5.361-6.345c.35-.899 0-.849 0-.849l-7.616-.05z" fill="#748A97"/><path d="M305.715 297.371c-18.288 0-33.068 18.086-33.068 40.368 0 22.282 14.83 40.367 33.068 40.367 18.287 0 33.068-18.085 33.068-40.367.05-22.282-14.781-40.368-33.068-40.368zm-.301 70.444c-13.127 0-23.799-13.39-23.799-29.876 0-16.487 10.672-29.876 23.799-29.876 13.127 0 23.799 13.389 23.799 29.876 0 16.486-10.672 29.876-23.799 29.876z" fill="#9A95B1"/><path d="M92.075 382.253h476.179a2.69 2.69 0 012.706 2.698 2.69 2.69 0 01-2.706 2.698H92.075a2.69 2.69 0 01-2.705-2.698 2.69 2.69 0 012.705-2.698zm489.907 0h29.11a2.69 2.69 0 012.706 2.698 2.69 2.69 0 01-2.706 2.698h-29.11a2.69 2.69 0 01-2.705-2.698 2.69 2.69 0 012.705-2.698zm1.704 17.436H161.618a2.69 2.69 0 01-2.705-2.698 2.69 2.69 0 012.705-2.698h422.068a2.69 2.69 0 012.706 2.698 2.69 2.69 0 01-2.706 2.698zm-434.844 0H123.64a2.69 2.69 0 01-2.705-2.698 2.69 2.69 0 012.705-2.698h25.252a2.69 2.69 0 012.706 2.698c-.05 1.499-1.253 2.698-2.756 2.698z" fill="#282144"/><path d="M305.865 370.912c-2.605 0-5.161-.499-7.666-1.399-.351-.15-.551-.449-.451-.799a15.44 15.44 0 011.103-3.597c2.104-4.846 3.507-8.843 3.407-12.54 0-.5-.051-.999-.051-1.449-1.853-.3-3.557-1.149-5.01-2.548-.451.65-.852 1.399-1.303 2.248-1.853 3.647-3.657 6.945-7.114 9.743a4.124 4.124 0 01-.852.549.768.768 0 01-.902-.2c-2.655-3.397-4.709-7.594-5.962-12.09-.1-.3.05-.65.351-.849 1.653-1 3.407-1.899 5.21-2.548 2.455-.95 5.011-2.249 6.915-3.298a17.394 17.394 0 01-.552-4.296c0-.999.101-1.999.251-2.948a54.024 54.024 0 00-4.609-1.099c-3.407-.749-6.213-1.199-7.967-1.499-.401-.05-.701-.449-.601-.849.952-6.245 3.257-11.991 6.764-16.637.1-.15.3-.25.501-.3.2-.05.401.05.551.15 3.657 3.098 5.762 6.295 7.115 8.444.2.249.35.499.501.749.701 1.049 1.403 2.148 1.954 2.998 1.352-1.199 2.856-1.949 4.459-2.249.05-1.598-.05-3.996-.652-7.094-.751-3.847-2.304-7.944-3.457-10.691-.1-.2-.1-.4 0-.6.101-.2.251-.35.401-.4 5.01-1.898 10.472-1.898 15.482.05.301.1.501.45.451.75 0 .2 0 .349-.05.549-.201 4.047-1.954 11.941-3.557 15.888-.451 1.149-.952 2.298-1.403 3.397 1.102.899 2.104 1.998 2.856 3.347 1.352-1.249 4.409-4.146 6.563-6.994 1.002-1.349 1.804-2.448 2.455-3.447 1.303-1.899 2.205-3.148 3.357-4.147.15-.15.351-.2.601-.2.201 0 .401.15.501.3 2.706 3.747 4.71 8.343 5.812 13.189.1.35-.1.7-.401.85l-1.052.499c-3.657 1.749-7.465 3.497-11.173 4.746-1.904.65-3.457.9-4.609 1.05.1.699.15 1.448.15 2.148v.799c1.353.15 3.507.55 6.614 1.549 4.258 1.349 8.016 3.247 10.421 4.646.301.15.451.5.351.8-1.002 5.195-3.056 10.091-5.862 14.138-.151.2-.351.3-.551.3-.201 0-.451-.05-.602-.2-.851-.899-1.853-2.198-2.906-3.847-.751-1.199-1.453-2.298-2.004-3.247-1.954-3.148-3.106-5.096-5.11-6.245-.802-.45-1.503-.849-2.105-1.199-.551 1.049-1.202 1.998-2.004 2.798.802 1.299 1.754 3.297 2.255 6.195l.15.849c.852 5.196 1.604 9.642 1.453 13.639 0 .3-.2.55-.501.649-2.655 1-5.261 1.499-7.916 1.499zm-6.513-2.598c4.308 1.499 8.968 1.449 13.277-.1.05-3.697-.651-7.943-1.453-12.839l-.15-.85c-.501-3.047-1.554-4.996-2.355-6.095-.201-.3-.151-.699.1-.999a11.007 11.007 0 002.455-3.497c.1-.2.25-.35.451-.4.2-.05.401-.05.601.05.752.45 1.704.999 2.806 1.599 2.355 1.349 3.607 3.397 5.662 6.744.601.95 1.252 1.999 2.004 3.198.751 1.199 1.453 2.148 2.104 2.898 2.355-3.548 4.058-7.794 5.01-12.241-2.355-1.299-5.812-2.997-9.67-4.246-3.607-1.149-5.812-1.499-7.014-1.549-.2 0-.401-.1-.501-.25-.1-.15-.2-.349-.15-.549.05-.45.05-.9.05-1.399 0-.899-.1-1.849-.251-2.698-.05-.2 0-.45.151-.6.15-.149.35-.249.551-.299 1.102-.1 2.856-.3 5.06-1.049 3.608-1.2 7.365-2.948 10.973-4.697l.551-.25c-1.002-4.146-2.706-8.043-4.91-11.34-.752.799-1.503 1.848-2.455 3.247-.702.999-1.503 2.148-2.506 3.497-2.905 3.897-7.264 7.694-7.465 7.844a.76.76 0 01-.651.15c-.251-.05-.401-.2-.501-.4-.852-1.649-2.004-3.047-3.357-3.997a.716.716 0 01-.251-.899 152.876 152.876 0 001.654-3.897c1.553-3.747 3.256-11.541 3.457-15.388v-.05c-4.259-1.548-8.868-1.548-13.127-.099 1.152 2.797 2.555 6.594 3.257 10.241.701 3.647.751 6.395.651 8.044 0 .35-.301.649-.651.699-1.804.2-3.458 1.099-4.86 2.548a.928.928 0 01-.602.25.616.616 0 01-.551-.35c-.501-.799-1.503-2.398-2.405-3.747-.15-.249-.35-.499-.501-.749-1.353-2.048-3.156-4.796-6.213-7.594-2.956 4.147-4.96 9.143-5.912 14.588 1.754.3 4.309.75 7.315 1.399 2.556.55 4.359.999 5.411 1.399.351.15.552.5.501.849-.25 1.05-.35 2.199-.35 3.298 0 1.549.2 2.997.651 4.446.1.35-.05.7-.351.85-1.954 1.099-4.86 2.597-7.615 3.697a30.447 30.447 0 00-4.459 2.148c1.152 3.847 2.906 7.444 5.11 10.492l.05-.05c3.207-2.648 4.91-5.746 6.714-9.293.651-1.299 1.303-2.398 1.954-3.197.15-.15.351-.25.551-.3.201 0 .451.1.601.25 1.503 1.648 3.307 2.647 5.311 2.797.401.05.652.35.702.7.05.649.1 1.349.1 2.098.1 3.997-1.303 8.144-3.507 13.19-.602.999-.902 1.898-1.052 2.747z" fill="#FEFEFC"/><path d="M302.408 344.933c3.265 0 5.912-3.132 5.912-6.995 0-3.862-2.647-6.994-5.912-6.994s-5.912 3.132-5.912 6.994c0 3.863 2.647 6.995 5.912 6.995z" fill="#FEFEFC"/><path d="M540.197 297.371c-18.288 0-33.068 18.086-33.068 40.368 0 22.282 14.83 40.367 33.068 40.367 18.287 0 33.068-18.085 33.068-40.367.05-22.282-14.781-40.368-33.068-40.368zm-.301 70.444c-13.127 0-23.799-13.39-23.799-29.876 0-16.487 10.672-29.876 23.799-29.876 13.127 0 23.799 13.389 23.799 29.876 0 16.486-10.672 29.876-23.799 29.876z" fill="#9A95B1"/><path d="M540.347 370.912c-2.606 0-5.161-.499-7.666-1.399-.351-.15-.551-.449-.451-.799a15.483 15.483 0 011.102-3.597c2.105-4.846 3.508-8.843 3.407-12.54 0-.5-.05-.999-.05-1.449-1.854-.3-3.557-1.149-5.01-2.548-.451.65-.852 1.399-1.303 2.248-1.854 3.647-3.657 6.945-7.114 9.743a4.124 4.124 0 01-.852.549.767.767 0 01-.902-.2c-2.655-3.397-4.71-7.594-5.962-12.09-.1-.3.05-.65.351-.849 1.653-1 3.407-1.899 5.21-2.548 2.455-.95 5.011-2.249 6.914-3.298a17.441 17.441 0 01-.551-4.296c0-.999.101-1.999.251-2.948a53.97 53.97 0 00-4.61-1.099c-3.407-.749-6.212-1.199-7.966-1.499-.401-.05-.701-.449-.601-.849.952-6.245 3.256-11.991 6.764-16.637.1-.15.3-.25.501-.3.2 0 .4.05.551.15 3.657 3.098 5.762 6.295 7.114 8.444.201.249.351.499.501.749.702.999 1.403 2.148 1.954 2.998 1.353-1.199 2.856-1.949 4.46-2.249.05-1.598-.05-3.996-.652-7.094-.751-3.847-2.304-7.944-3.457-10.691-.1-.2-.1-.4 0-.6.1-.2.251-.35.401-.4 5.01-1.898 10.472-1.898 15.482.05.3.1.501.45.451.75 0 .2 0 .349-.05.549-.201 4.047-1.954 11.941-3.558 15.888-.451 1.149-.952 2.298-1.403 3.397 1.103.899 2.105 1.998 2.856 3.347 1.353-1.249 4.409-4.146 6.564-6.994 1.002-1.349 1.804-2.448 2.455-3.447 1.303-1.899 2.204-3.148 3.357-4.147.15-.15.351-.2.601-.2.251 0 .401.15.501.3 2.706 3.747 4.71 8.343 5.812 13.189.1.35-.1.7-.401.85l-1.052.499c-3.657 1.749-7.465 3.497-11.173 4.746-1.904.65-3.457.9-4.609 1.05.1.699.15 1.448.15 2.148v.799c1.353.15 3.507.55 6.613 1.549 4.259 1.349 8.017 3.247 10.422 4.646.301.15.451.5.351.8-1.002 5.195-3.057 10.091-5.862 14.138-.151.2-.351.3-.552.3-.2 0-.45-.05-.601-.2-.852-.899-1.854-2.148-2.906-3.847-.751-1.199-1.453-2.298-2.004-3.247-1.954-3.148-3.106-5.096-5.11-6.245-.802-.45-1.503-.849-2.105-1.199-.551 1.049-1.202 1.998-2.004 2.798.802 1.299 1.754 3.297 2.255 6.195l.15.849c.852 5.196 1.603 9.642 1.453 13.639 0 .3-.2.55-.501.649-2.655 1-5.261 1.499-7.916 1.499zm-6.514-2.598c4.309 1.499 8.969 1.449 13.278-.1.05-3.697-.652-7.943-1.453-12.839l-.151-.85c-.501-3.047-1.553-4.996-2.354-6.095-.201-.3-.151-.699.1-.999a11.007 11.007 0 002.455-3.497c.1-.2.25-.35.451-.4.2-.05.401-.05.601.05.752.45 1.703.999 2.806 1.599 2.355 1.349 3.607 3.397 5.661 6.744.602.95 1.253 1.999 2.004 3.198.752 1.199 1.453 2.148 2.105 2.898 2.355-3.548 4.058-7.794 5.01-12.241-2.355-1.299-5.812-2.997-9.67-4.246-3.607-1.149-5.812-1.499-7.014-1.549a.616.616 0 01-.501-.25c-.151-.15-.201-.349-.151-.549.051-.45.051-.9.051-1.399 0-.899-.101-1.849-.251-2.698-.05-.2 0-.45.15-.6.151-.149.351-.249.552-.299 1.102-.1 2.855-.3 5.06-1.049 3.607-1.2 7.365-2.948 10.972-4.697l.502-.25c-1.003-4.146-2.706-8.043-4.911-11.34-.751.799-1.503 1.848-2.455 3.247-.701.999-1.503 2.148-2.505 3.497-2.906 3.897-7.265 7.694-7.465 7.844a.761.761 0 01-.651.15c-.251-.05-.401-.2-.502-.4-.851-1.649-2.004-3.047-3.356-3.997a.716.716 0 01-.251-.899c.501-1.199 1.102-2.548 1.653-3.897 1.554-3.747 3.257-11.541 3.458-15.388v-.05c-4.259-1.548-8.869-1.548-13.127-.099 1.152 2.797 2.555 6.594 3.256 10.241.702 3.647.752 6.395.652 8.044 0 .35-.301.649-.652.699-1.803.2-3.457 1.099-4.86 2.548a.925.925 0 01-.601.25.616.616 0 01-.551-.35c-.501-.799-1.503-2.398-2.405-3.747-.15-.249-.351-.499-.501-.749-1.353-2.048-3.157-4.796-6.263-7.594-2.956 4.147-4.96 9.143-5.912 14.588 1.754.3 4.309.75 7.315 1.399 2.555.55 4.359.999 5.411 1.399.351.15.551.5.501.849-.25 1.05-.351 2.199-.351 3.298 0 1.549.201 2.997.652 4.446.1.35-.05.7-.351.85-1.954 1.099-4.86 2.597-7.616 3.697-1.553.599-3.056 1.299-4.459 2.148 1.153 3.847 2.906 7.444 5.161 10.492l.05-.05c3.206-2.648 4.91-5.746 6.714-9.293.651-1.299 1.302-2.398 2.004-3.197.15-.15.351-.25.551-.3.25 0 .451.1.601.25 1.503 1.648 3.307 2.647 5.311 2.797.401.05.651.35.702.7.05.649.1 1.349.1 2.098.1 3.997-1.303 8.144-3.507 13.19-.602.999-.902 1.898-1.053 2.747z" fill="#FEFEFC"/><path d="M536.89 344.933c3.265 0 5.912-3.132 5.912-6.995 0-3.862-2.647-6.994-5.912-6.994s-5.912 3.132-5.912 6.994c0 3.863 2.647 6.995 5.912 6.995z" fill="#FEFEFC"/><path d="M323.15 415.45s3.089 5.705 5.07 8.002c1.98 2.298 9.664 6.339 9.743 13.074.08 7.29-12.912 5.309-17.982 4.992-5.069-.238-5.465-4.2-7.604-8.32-2.139-4.12-4.278-3.407-4.674-6.814-.396-3.328 2.06-11.013 2.06-11.013h13.387v.079zm-77.235-.713s-6.258 6.972-12.595 8.478c-6.337 1.426-10.773 3.328-10.853 7.368-.079 4.041 18.299 6.656 25.508 2.615 10.852-6.022 11.961-4.199 13.149-7.21 1.189-3.011-1.425-11.093-1.346-12.044.158-1.267-13.863.793-13.863.793z" fill="#282144"/><path d="M246.628 411.409s-.792 3.248-.713 3.328c.159.079 14.338 1.743 13.863-.872-.317-2.139-.872-4.437-.872-4.437l-12.278 1.981zm63.293 1.822s-.554 3.09-.475 3.169c.079.08 14.338 2.615 14.258 0-.079-2.06-1.346-4.437-1.346-4.437l-12.437 1.268z" fill="#81807E"/><path d="M259.54 215.701s-5.149 50.076-7.842 67.19c-3.169 20.046-4.199 36.606-5.07 46.986-1.109 13.074-1.347 77.253-2.06 81.057-.792 3.803 17.111 1.03 17.111 1.03s8.793-83.909 12.041-97.775c3.01-12.915 14.338-68.617 17.189-65.131 2.773 3.566 6.258 65.051 8.318 75.193 2.06 10.222 8.318 90.09 8.318 90.09s14.179 2.852 17.981-.397c0 0 1.743-68.854.397-88.029-.476-7.289 8.555-87.474-3.09-119.722-6.179-16.877-63.293 9.508-63.293 9.508z" fill="#2D1686"/><path d="M307.703 198.586s-3.406-5.229-7.05-5.863c-3.644-.634 48.321-20.759 48.163-30.03-.079-7.527-18.853-22.027-18.853-22.027l-.555 1.981c.475-2.06-3.882-2.377 0 0-.396 1.505-5.941 22.185-6.179 32.09-.237 10.3.634 45.718.634 45.718l-13.783 3.724-44.044.396-10.14-4.041s1.109-11.41 1.505-19.412c.238-5.071 1.268-14.183.951-23.057 0 0 .158-9.35-.792-13.391-.079-17.748-1.188-35.418-1.188-35.418a507.712 507.712 0 01-1.268-22.661c1.98-1.03 4.278-2.218 6.179-3.09 5.783-2.773 13.863-6.497 19.012-8.874 3.01-1.426 6.02-2.377 6.02-2.377s20.675-1.98 22.339-1.902c.554 0 3.089.951 6.495 2.219 7.367 2.773 21.468 8.478 23.765 10.063 3.327 2.377 24.953 59.584 25.27 63.545.633 7.131-56.481 32.407-56.481 32.407z" fill="#E8E5F1"/><path d="M257.243 216.81s30.26 2.615 56.797 0v8.716s-39.449 3.803-58.144-1.664l1.347-7.052z" fill="#1D2033"/><path d="M254.708 106.595c.238 7.131.555 14.817 1.188 23.057 0 0 .555 20.047 1.743 39.063.396 2.694.554 5.546.396 8.319a474.562 474.562 0 01-1.188 12.044v.159c-.079 1.03-.238 1.98-.396 3.01v.08c-2.535 21.155-6.892 45.48-9.189 52.849-.476 1.505 1.188 2.931 2.376 4.041l8.318 5.229s3.406-31.456 4.515-42.073c1.109-10.301 4.515-24.087 6.02-37.557 1.902-17.035 4.516-33.754 5.942-43.737 3.723-25.831 8.634-37.399 8.634-37.399-2.376.634-28.359 12.915-28.359 12.915zm87.85 53.483c3.564 7.845-31.607 18.7-30.736 20.68 1.981 4.675 5.466 16.006 5.466 16.006s51.332-22.423 50.777-27.811c-.396-3.962-22.893-63.308-26.22-65.685-1.901-1.347-16.002-6.418-22.893-9.192a859.518 859.518 0 00-6.734-2.456c-1.505 1.664-11.644 12.836-15.209 55.068-.634 7.131 1.267 22.185 2.535 34.546 1.346 13.153 2.852 23.374 3.961 34.387a6214.873 6214.873 0 013.723 38.904l21.546-9.587c3.486-1.743 9.506-6.259 8.239-9.983-4.991-13.946-12.437-40.41-12.437-52.612 0 0 3.485-33.754 5.387-40.33-.08-.158 8.634 9.27 12.595 18.065z" fill="#4E33B5"/><path d="M307.116 88.03c-.126 7.254-14.822 11.291-14.822 11.291s-6.119-7.38-4.668-8.075c.568-.252.82-1.387.883-2.65.063-1.198 0-2.46-.063-3.28-.063-.504-.063-.82-.063-.82s2.081-2.144 4.731-4.668c4.667-4.416 11.038-10.093 11.038-7.822 0 .126 0 .252-.063.441-1.073 4.984 3.027 15.582 3.027 15.582z" fill="#FFAE73"/><path d="M301.503 77.368c0 .063-.631.946-1.703 2.208-2.271 2.713-6.497 7.191-11.228 9.02.063-1.198 0-2.46-.063-3.28-.504 0-.946-.063-1.451-.189 1.325-2.208 3.217-4.479 3.217-4.479l2.965-.82 8.263-2.46z" fill="#D79573"/><path d="M292.414 100.098l-3.802 5.15s2.218 3.011 6.179.793l-2.377-5.943z" fill="#E34208"/><path d="M289.642 105.407s-14.496 55.86-11.486 99.28l4.911 8.558 4.595-9.033s1.267-77.729 5.228-98.963l-3.248.158z" fill="#E34208"/><path d="M288.374 95.265l4.12 4.754s6.575-1.268 8.476-4.675c1.901-3.407-12.596-.08-12.596-.08z" fill="#FFAE73"/><path d="M287.424 91.145s.475 3.645 5.07 8.953l-4.991 6.656-2.693-13.866 2.614-1.743zm19.883-4.12s-8.159 10.38-14.813 13.073l3.089 7.607 14.1-17.036-2.376-3.644z" fill="#D2CCE7"/><path d="M228.409 172.518s-5.783-.396 2.455-2.456c3.803-.951 8.872-6.18 13.625-12.44 1.585-2.06 3.09-4.199 4.595-6.339 5.862-8.478 10.456-16.639 10.456-16.639s17.348-20.363 3.406-29.396c0 0-5.941-.158-9.268 1.664-3.327 1.823-10.535 16.798-11.724 19.492-1.188 2.615-14.417 27.256-15.288 27.811-.872.555-1.743 3.328-1.743 3.328l.396 1.664 3.09 13.311z" fill="#4E33B5"/><path d="M279.486 227.984h14.18v-10.775h-14.18v10.775z" fill="#3A4066"/><path d="M305.541 70.91c-1.379 2.898-2.69 5.037-3.104 5.865-.276.552-.897 1.45-1.863 2.415-2.622 2.76-7.52 6.349-12.35 6.21a6.265 6.265 0 01-1.587-.206c-1.931-.414-4.277-1.311-5.519-3.657-10.004-18.838-2.76-34.226-2.76-34.226s27.321-7.452 31.599.483c3.036 5.52-1.104 16.285-4.416 23.116z" fill="#FFAE73"/><path d="M278.358 47.312s-2.553-.139-3.174-4.762c-.621-4.554.621-5.865.621-5.865s11.315-4.554 15.317-5.106c4.07-.621 14.005-1.173 16.351 1.38 0 0 5.657-1.242 7.244 7.797 2.484 14.422-8.348 28.36-8.348 28.36s.069-9.384-2.07-10.626c-2.139-1.242-4.001 1.725-4.001 1.725l-4.416.759s6.692-13.938-1.311-14.421c-8.003-.552-11.591 1.518-16.213.759z" fill="#232729"/><path d="M300.436 56.42c.414-4.14 8.21-5.727 7.658-1.38-.552 4.347-4.347 8.487-6.141 8.349-1.724-.138-1.793-3.795-1.517-6.97zm-71.869 134.322h8.793c1.663 1.03-.475 2.219-.475 2.219s-12.596.792-13.309 0c-.713-.793 0-4.041 0-4.041-1.188-2.615-2.297-5.309-3.168-8.003-.713-2.456 0-3.882.396-4.437l.238-.238" fill="#FFAE73"/><path d="M293.127 177.51l4.674 13.232 9.902-11.014c.238-.317.396-.634.396-1.03 0-.871-.713-1.505-1.584-1.505l-13.388.317z" fill="#E34208"/><path d="M205.515 146.529l22.973 44.213h69.313l-4.674-13.232-14.021-33.675a3.188 3.188 0 00-2.931-1.981h-67.808c-.554 0-1.03.159-1.505.397-1.584.713-2.218 2.694-1.347 4.278z" fill="#F25B24"/><path d="M246.153 164.199c.871-1.744 2.852-2.615 4.673-1.981 2.06.634 3.169 2.852 2.456 4.912-.634 2.06-2.852 3.17-4.911 2.457-2.06-.951-3.09-3.328-2.218-5.388z" fill="#fff"/><path d="M316.654 194.387l-20.596 2.377s-10.773-3.249-12.278-3.645c-1.03-.396-1.822-1.268-2.06-2.298h14.734c.872 0 1.743-.396 2.298-1.109l4.515-5.15s-3.01-1.426-4.991-2.694a2.721 2.721 0 01-1.425-3.09c1.901-.317 13.149 3.407 13.149 3.407l2.614.475 4.04 11.727z" fill="#FFAE73"/><defs><linearGradient id="paint0_linear" x1="355.841" y1="0" x2="355.841" y2="438.914" gradientUnits="userSpaceOnUse"><stop stop-color="#fff"/><stop offset="1" stop-color="#fff" stop-opacity="0"/></linearGradient></defs></svg>